<svg width="41" height="40" viewBox="0 0 41 40" fill="none" xmlns="http://www.w3.org/2000/svg">
<path fill-rule="evenodd" clip-rule="evenodd" d="M9.73915 0.0797265C8.43112 0.229985 6.89951 0.737567 5.7285 1.40893C2.70162 3.14413 0.704366 6.17884 0.320762 9.62533C0.205579 10.6606 0.205579 29.3274 0.320762 30.3626C0.879909 35.3863 4.83901 39.3532 9.85285 39.9134C10.8861 40.0289 29.5162 40.0289 30.5494 39.9134C35.5632 39.3532 39.5223 35.3863 40.0815 30.3626C40.1967 29.3274 40.1967 10.6606 40.0815 9.62533C39.5223 4.60163 35.5632 0.634738 30.5494 0.0744913C29.6317 -0.0280253 10.6357 -0.0232589 9.73915 0.0797265ZM31.3586 2.58138C32.9791 3.02919 34.2274 3.73993 35.3253 4.84003C36.4227 5.93958 37.1313 7.18861 37.5801 8.8145L37.7866 9.56259V19.994V30.4253L37.5801 31.1734C37.1313 32.7993 36.4227 34.0484 35.3253 35.1479C34.2279 36.2475 32.9813 36.9575 31.3586 37.4071L30.612 37.614H20.2011H9.79023L9.04361 37.4071C7.42091 36.9575 6.17434 36.2475 5.07694 35.1479C3.97955 34.0484 3.27091 32.7993 2.82218 31.1734L2.61568 30.4253V19.994V9.56259L2.82218 8.8145C3.27036 7.19064 3.97955 5.9395 5.07265 4.84425C6.3675 3.54685 8.07575 2.68343 9.86821 2.42034C10.1256 2.3826 14.8982 2.35697 20.4741 2.36338L30.612 2.3751L31.3586 2.58138ZM31.0019 5.20368C29.1029 5.46599 27.8029 7.32035 28.2614 9.1133C28.5879 10.3902 29.3923 11.199 30.659 11.5242C32.8007 12.074 34.9082 10.1258 34.551 7.92654C34.3521 6.70158 33.459 5.67321 32.2887 5.32151C31.9484 5.21931 31.3112 5.16094 31.0019 5.20368ZM31.8765 7.69658C32.2952 7.95819 32.3646 8.61173 32.0127 8.97968C31.7307 9.27465 31.3745 9.3438 31.0155 9.17315C30.4702 8.91389 30.353 8.1976 30.7884 7.78668C31.1126 7.48093 31.4822 7.45029 31.8765 7.69658ZM18.6982 9.17487C14.384 9.76403 10.7447 13.0184 9.64276 17.2724C8.6756 21.0058 9.75794 24.9382 12.5123 27.6979C16.8041 31.9983 23.5981 31.9983 27.89 27.6979C32.1817 23.3978 32.1817 16.5868 27.89 12.2908C25.4267 9.82513 22.1271 8.70659 18.6982 9.17487ZM21.4489 11.5123C23.3199 11.7965 24.9136 12.6021 26.246 13.9372C29.6023 17.3001 29.6023 22.6878 26.246 26.0507C22.8897 29.4136 17.5125 29.4136 14.1563 26.0507C10.8 22.6878 10.8 17.3001 14.1563 13.9372C16.0969 11.9927 18.767 11.1049 21.4489 11.5123Z" fill="#F4F4F4"/>
</svg>
