<svg width="41" height="40" viewBox="0 0 41 40" fill="none" xmlns="http://www.w3.org/2000/svg">
<path d="M9.86709 0.0562782C7.36636 0.384968 5.15478 1.47278 3.38083 3.2571C1.80224 4.83012 0.809766 6.66139 0.317435 8.91527L0.137695 9.71352V20.0047V30.2958L0.317435 31.0941C1.30991 35.5862 4.54523 38.8261 9.03091 39.82L9.82802 40H20.1044H30.3809L31.178 39.82C33.1317 39.3896 34.679 38.6305 36.1872 37.3627C38.0472 35.7975 39.3366 33.6218 39.8915 31.0941L40.0712 30.2958V20.0047V9.71352L39.8915 8.91527C38.9068 4.43882 35.7027 1.21452 31.2171 0.18932L30.459 0.0171509L20.417 0.00149918C14.892 -0.00632858 10.1484 0.0171509 9.86709 0.0562782ZM31.0529 2.56841C34.3742 3.48405 36.6014 5.71445 37.5236 9.04049L37.7268 9.79178V20.0047V30.2175L37.5236 30.9688C36.6014 34.2949 34.3742 36.5253 31.0529 37.4487L30.3027 37.6522H20.1044H9.90616L9.15594 37.4487C5.83467 36.5253 3.60746 34.287 2.69313 30.9688L2.48213 30.2175L2.45868 20.4351C2.44305 13.7126 2.45868 10.4492 2.5212 10.0031C2.83379 7.63964 4.08416 5.50315 6.03004 4.0397C7.03814 3.27275 8.68706 2.59189 9.98431 2.40407C10.2422 2.36494 14.9232 2.34146 20.378 2.34929L30.3027 2.35711L31.0529 2.56841Z" fill="#F4F4F4"/>
<path d="M9.86709 0.0562782C7.36636 0.384968 5.15478 1.47278 3.38083 3.2571C1.80224 4.83012 0.809766 6.66139 0.317435 8.91527L0.137695 9.71352V20.0047V30.2958L0.317435 31.0941C1.30991 35.5862 4.54523 38.8261 9.03091 39.82L9.82802 40H20.1044H30.3809L31.178 39.82C33.1317 39.3896 34.679 38.6305 36.1872 37.3627C38.0472 35.7975 39.3366 33.6218 39.8915 31.0941L40.0712 30.2958V20.0047V9.71352L39.8915 8.91527C38.9068 4.43882 35.7027 1.21452 31.2171 0.18932L30.459 0.0171509L20.417 0.00149918C14.892 -0.00632858 10.1484 0.0171509 9.86709 0.0562782ZM31.0529 2.56841C34.3742 3.48405 36.6014 5.71445 37.5236 9.04049L37.7268 9.79178V20.0047V30.2175L37.5236 30.9688C36.6014 34.2949 34.3742 36.5253 31.0529 37.4487L30.3027 37.6522H20.1044H9.90616L9.15594 37.4487C5.83467 36.5253 3.60746 34.287 2.69313 30.9688L2.48213 30.2175L2.45868 20.4351C2.44305 13.7126 2.45868 10.4492 2.5212 10.0031C2.83379 7.63964 4.08416 5.50315 6.03004 4.0397C7.03814 3.27275 8.68706 2.59189 9.98431 2.40407C10.2422 2.36494 14.9232 2.34146 20.378 2.34929L30.3027 2.35711L31.0529 2.56841Z" stroke="#EEEEEE"/>
<path d="M8.821 12.0667C7.79454 12.2802 7.19466 12.9473 7.13467 13.9346C7.10801 14.3949 7.12801 14.5083 7.40795 15.3021C9.24091 20.639 12.1803 24.755 15.553 26.7229C17.1393 27.6502 18.7723 28.0704 20.5053 27.9904C21.4451 27.9504 21.7984 27.837 22.2449 27.4367C22.7982 26.9364 22.8782 26.6695 22.9181 25.1419L22.9515 23.841L24.0379 24.875C26.1375 26.8697 26.5107 27.1899 27.044 27.4701C27.9438 27.937 28.1837 27.9771 30.1567 27.9771H31.8897L32.2829 27.7769C32.5895 27.6235 32.7228 27.4967 32.8828 27.2499C33.0561 26.9564 33.0828 26.863 33.0828 26.416C33.0828 25.9758 33.0494 25.8423 32.8695 25.4754C32.6095 24.9484 32.3829 24.6682 30.29 22.3401C29.3768 21.3327 28.6103 20.4321 28.577 20.3454C28.4903 20.132 28.597 19.8251 28.8769 19.4582C29.3435 18.8378 31.643 15.4156 31.803 15.102C32.3696 13.9746 32.3096 12.9473 31.643 12.3802C31.2431 12.0334 31.0298 12 29.3702 12C27.7638 12 27.3772 12.04 26.8707 12.2802C26.2975 12.547 25.9175 13.014 25.511 13.9413C24.9111 15.3155 23.9246 16.9299 23.1981 17.7371L22.9248 18.0373L22.9181 15.8292C22.9181 13.3809 22.8915 13.1674 22.4982 12.6538C22.3783 12.4937 22.1316 12.2935 21.925 12.1868L21.5717 12H19.3922C17.066 12 16.6927 12.04 16.1995 12.3469C15.9062 12.527 15.6063 13.0007 15.5463 13.3742C15.493 13.7211 15.593 14.028 15.8929 14.4749C16.0129 14.6617 16.1462 14.9286 16.1862 15.0687C16.2262 15.2221 16.2462 16.0093 16.2395 17.0433L16.2195 18.7644L15.8796 18.2641C15.1064 17.1367 14.3799 15.6624 13.6067 13.6678C12.9335 11.9066 13.0868 12 10.7873 12.0067C9.85412 12.0133 8.96763 12.04 8.821 12.0667ZM11.6338 14.1147C12.0803 15.4422 13.3268 18.0239 14.0599 19.138C15.533 21.3928 17.3193 22.3667 18.0658 21.3261L18.2191 21.1059L18.2391 18.164C18.2591 15.2154 18.2391 14.9352 18.0125 14.1481L17.9725 14.0013H19.4455H20.9185V16.7831C20.9185 19.3648 20.9319 19.5916 21.0452 19.8451C21.3585 20.5322 22.3583 20.8724 23.0714 20.5389C23.418 20.3788 24.4712 19.3581 25.0377 18.6443C25.8842 17.577 26.8573 15.9292 27.3839 14.6617C27.5305 14.3015 27.6439 14.128 27.7572 14.0747C27.8571 14.028 28.3437 14.0013 28.9836 14.0013C29.8901 14.0013 30.05 14.0146 30.05 14.1014C30.05 14.1948 29.1969 15.4889 27.8905 17.3702C26.9107 18.7777 26.864 18.8511 26.7307 19.218C26.4574 19.9518 26.4841 20.6323 26.8174 21.3127C26.924 21.5329 27.6372 22.3801 28.8303 23.721C29.8501 24.855 30.7299 25.8357 30.7832 25.9024C30.8699 26.0158 30.8232 26.0225 29.7168 25.9958C28.0571 25.9624 28.1571 26.0225 25.9642 23.9344C24.7578 22.7937 24.1179 22.2333 23.8846 22.1199C23.2247 21.793 22.4782 21.7597 21.8317 22.0265C21.5784 22.1399 21.1518 22.4935 21.0319 22.7003C20.9785 22.7937 20.9385 23.3607 20.9185 24.4081L20.8852 25.9758L19.9521 25.9691C18.799 25.9624 18.2724 25.829 17.146 25.282C16.0662 24.755 15.313 24.1946 14.2866 23.1739C12.3003 21.1993 10.7073 18.5376 9.44754 15.082C9.26757 14.5817 9.13427 14.1347 9.1476 14.088C9.17426 14.0213 9.4542 14.0013 10.3873 14.0013C11.4738 14.0013 11.5938 14.0146 11.6338 14.1147Z" fill="#F4F4F4"/>
</svg>
